<svg width="166" height="32" viewBox="0 0 166 32" fill="none" xmlns="http://www.w3.org/2000/svg">
<path fill-rule="evenodd" clip-rule="evenodd" d="M95.4122 22.9165V11.5437H92.7892V19.2177L85.9524 11.5437H83.3535V22.9165H85.9753V15.1634L92.7892 22.9165H95.4122ZM149.55 16.4341C150.091 16.4341 151 16.2621 151 15.137C151 14.3307 150.471 13.8708 149.55 13.8708H144.761V16.4273L149.55 16.4341ZM154.027 22.9165H150.857L147.696 18.7567H144.617V22.9165H141.997V11.5437H149.407C151.959 11.5437 153.475 12.9085 153.475 15.1932C153.475 16.5626 152.718 18.1018 150.731 18.5812L154.027 22.9165ZM108.268 8.71191C113.288 8.71191 116.29 11.4095 116.29 15.9169C116.29 19.1501 114.188 22.9165 108.268 22.9165H101.936V8.71191H108.268ZM104.566 11.062V20.5734H108.268C110.277 20.5734 113.653 19.9506 113.653 15.7724C113.653 12.7766 111.69 11.062 108.268 11.062H104.566ZM157.844 20.5906V18.3942H163.896V16.0671H157.844V13.8708H165.663V11.5437H155.229V22.9165H165.663V20.5906H157.844ZM132.436 20.5906V18.3942H138.485V16.0671H132.436V13.8708H140.252V11.5437H129.813V22.9165H140.252V20.5906H132.436ZM120.252 20.5906V18.3942H126.297V16.0671H120.252V13.8708H128.069V11.5437H117.634V22.9165H128.069V20.5906H120.252ZM78.6006 11.5437V16.0671H71.7822V11.5437H69.1626V22.9165H71.7822V18.3942H78.6006V22.9165H81.2202V11.5437H78.6006ZM60.883 20.8613C59.3507 20.8613 56.7724 20.3853 56.7724 17.1968C56.7724 14.9122 58.2726 13.6001 60.883 13.6001C63.4922 13.6001 64.9878 14.9122 64.9878 17.1968C64.9878 20.3853 62.4153 20.8613 60.883 20.8613ZM54.1574 17.3184C54.1574 20.0206 55.918 23.1838 60.883 23.1838C65.8469 23.1838 67.6097 20.0206 67.6097 17.3184C67.6097 13.5336 65.0945 11.2718 60.883 11.2718C56.6715 11.2718 54.1574 13.5336 54.1574 17.3184ZM42.6366 20.2144C42.6366 20.2144 44.1242 20.7512 45.7895 20.7512C47.5649 20.7512 48.6729 20.5069 49.2899 19.8772C49.8037 19.3611 50.0079 18.4963 49.9826 17.2186C49.9826 17.214 49.9826 8.72682 49.9826 8.72682H52.6056V17.5845C52.5678 21.5093 50.6719 23.1838 46.2678 23.1838C44.1264 23.1838 42.6366 22.8408 42.6366 22.8408V20.2144Z" fill="#367C2B"/>
<path fill-rule="evenodd" clip-rule="evenodd" d="M31.7133 3.67777C27.3515 1.53762 22.3292 0.331055 17.1003 0.331055C11.8543 0.331055 6.83883 1.54565 2.46677 3.69727C0.917275 7.44541 0.0639648 11.5342 0.0639648 15.8168C0.0639648 20.0983 0.917275 24.1847 2.46562 27.9306C6.83883 30.0857 11.8543 31.2968 17.1003 31.2968C22.3292 31.2968 27.3538 30.0902 31.7156 27.9501C33.2708 24.1985 34.1264 20.104 34.1264 15.8168C34.1264 11.5273 33.2685 7.43165 31.7133 3.67777Z" fill="#367C2B"/>
<path fill-rule="evenodd" clip-rule="evenodd" d="M12.4519 12.3038C11.7476 13.7042 11.2591 15.2732 11.0595 17.0624C11.001 17.0693 10.6432 17.1003 10.6432 17.1003C9.17509 17.2356 7.65542 17.3491 6.18392 17.918L6.28829 18.5144C8.6888 21.4999 12.3268 23.3017 12.3635 23.3166L12.4473 23.2271L11.6616 21.9747C11.4747 21.8336 10.9826 21.7224 10.9677 21.7201C9.32878 21.173 8.17957 19.0317 7.99032 18.6647C9.3414 18.6601 10.5262 19.0523 11.6731 19.4308C12.4301 19.6808 13.1434 19.916 13.8821 20.0375C15.1815 20.2463 16.5395 20.002 17.7621 19.8494C18.7542 19.7302 19.7165 19.7324 20.6764 19.7955C20.7911 19.9366 21.7993 21.1569 22.7604 21.6593C23.9692 22.2935 27.4834 23.3418 27.6566 23.4014C27.7289 23.4691 29.0822 24.8305 29.9137 26.4075C25.9764 28.2197 21.5469 29.1785 17.0992 29.1785C12.6399 29.1785 8.19562 28.2128 4.24333 26.38C2.93928 23.0035 2.27636 19.4526 2.27636 15.8146C2.27636 12.1823 2.94043 8.62795 4.24562 5.24912C8.19677 3.41978 12.6399 2.45177 17.0992 2.45177C21.5573 2.45177 25.997 3.41519 29.9378 5.23306C31.2465 8.61648 31.9105 12.1754 31.9105 15.8146C31.9105 19.1487 31.3566 22.4048 30.2647 25.5061C29.01 23.3303 28.5019 22.672 28.5019 22.672C28.4858 22.6605 26.7287 21.7441 26.2941 21.3703C25.9477 21.0698 25.7825 20.4584 25.591 19.7508C25.326 18.769 24.9934 17.5556 24.0415 16.5509L25.099 16.1185C24.8054 14.0804 22.3911 12.7569 22.3658 12.742L22.2294 12.8062C23.1503 13.9611 23.4199 14.9452 23.4199 15.545C23.4199 15.8513 23.3717 16.0531 23.3499 16.138C23.0735 16.0371 21.29 15.4602 17.2357 15.6127C16.6404 15.6322 15.7882 15.6058 15.279 15.1115C14.9911 14.8328 14.8466 14.4325 14.8466 13.9187C14.8466 13.9164 14.8466 13.9164 14.8466 13.9141C14.8489 12.508 15.4419 10.6121 15.5267 10.346L16.5854 10.4745C17.8435 9.77372 18.3367 9.17159 18.4055 9.07754L18.347 9.01561C17.2712 9.15438 15.8651 9.43767 15.8651 9.43767C15.958 9.19109 16.2436 8.38136 16.2436 7.46497C16.2436 6.47632 15.9121 5.3661 14.6539 4.72038L14.5198 4.78576C14.5312 4.79608 15.2526 5.58058 15.2526 6.65754C15.2526 6.95573 15.1953 7.27802 15.0519 7.61177C14.6413 7.44088 14.4716 7.42368 13.9807 7.40992C13.741 6.56693 13.0047 5.8501 12.0023 5.48768L11.8807 5.56108C11.8922 5.56911 12.9531 6.32378 13.0138 7.43744C12.4794 7.48103 12.2523 7.53264 11.5928 7.7345C11.3164 7.27229 10.6867 6.94197 9.89536 6.84678L9.79329 6.92592C9.80246 6.9305 10.7338 7.25279 10.9436 7.96732C10.3645 8.23341 9.76691 8.64171 9.3586 8.96973L9.39989 9.12571C11.8153 8.18753 14.0736 7.91342 14.6494 8.59583C14.7457 8.71167 14.7962 8.84701 14.7962 9.00643C14.7962 9.20829 14.7182 9.43997 14.5656 9.70491C13.3682 9.96641 11.5813 10.4756 10.111 11.0285L10.3071 11.6455C10.3071 11.6455 11.7855 11.946 12.3463 12.063C12.3463 12.063 12.5562 12.0917 12.4519 12.3038ZM30.6742 4.59422C26.6003 2.67657 21.9392 1.59961 17.0992 1.59961C12.2466 1.59961 7.59349 2.6823 3.50815 4.61257C2.12726 8.09463 1.37488 11.8737 1.37488 15.8237C1.37488 19.7623 2.12726 23.5368 3.50012 27.0143C7.58546 28.9468 12.242 30.0318 17.0992 30.0318C21.9415 30.0318 26.6072 28.9537 30.6833 27.0326C32.0585 23.5517 32.8132 19.7703 32.8132 15.8237C32.8132 11.8669 32.055 8.08316 30.6742 4.59422Z" fill="#FFDE00"/>
</svg>
